<?xml version="1.0" encoding="iso-8859-1"?>
<!-- Generator: Adobe Illustrator 19.0.0, SVG Export Plug-In . SVG Version: 6.00 Build 0)  -->
<svg version="1.1" id="Layer_1" xmlns="http://www.w3.org/2000/svg" xmlns:xlink="http://www.w3.org/1999/xlink" x="0px" y="0px"
	 viewBox="0 0 503.688 503.688" style="enable-background:new 0 0 503.688 503.688;" xml:space="preserve">
<g>
	<g>
		<path d="M486.343,403.705l-68.885-68.885c-8.587-8.588-21.103-10.862-31.771-6.822l-27.062-26.15
			c19.197-30.145,30.325-65.929,30.325-104.313c0-107.398-87.077-194.475-194.475-194.475S0,90.138,0,197.536
			s87.077,194.475,194.475,194.475c41.063,0,79.148-12.741,110.538-34.469l26.226,25.327c-3.69,10.496-1.344,22.637,7.02,31.054
			l70.32,70.32c22.676,22.641,59.701,21.724,81.207-2.183C509.926,459.693,507.67,425.033,486.343,403.705z M42.667,197.536
			c0-83.834,67.974-151.808,151.808-151.808s151.808,67.974,151.808,151.808c0,33.125-10.62,63.769-28.63,88.727l-3.875,4.925
			c-6.374,8.1-13.409,15.445-21.052,21.959l-3.592,3.061c-25.957,20.733-58.859,33.137-94.66,33.137
			C110.641,349.344,42.667,281.37,42.667,197.536z M458.071,453.518c-5.143,5.718-13.935,5.935-19.335,0.544l-63.256-63.257
			c2.063-5.747,2.311-11.997,0.75-17.86c5.976,1.592,12.338,1.305,18.158-0.855l61.785,61.785
			C461.942,439.645,462.523,448.573,458.071,453.518z"/>
	</g>
</g>
<g>
</g>
<g>
</g>
<g>
</g>
<g>
</g>
<g>
</g>
<g>
</g>
<g>
</g>
<g>
</g>
<g>
</g>
<g>
</g>
<g>
</g>
<g>
</g>
<g>
</g>
<g>
</g>
<g>
</g>
</svg>
